# xmcd
#
# Track frame offsets:
#	150
#	13615
#	32421
#	47205
#	65901
#	81294
#	97326
#	116580
#
# Disc length: 1773 seconds
#
# Revision: 1
# Processed by: cddbd v1.5.2PL0 Copyright (c) Steve Scherf et al.
# Submitted via: audiograbber 1.83.01
#
DISCID=6b06eb08
DTITLE=nublues - nublu menu
DYEAR=2002
DGENRE=Blues
TTITLE0=blue out
TTITLE1=sigue bailar
TTITLE2=evil ways
TTITLE3=bring you up
TTITLE4=blind love
TTITLE5=my reason why
TTITLE6=long time dead
TTITLE7=sugar and spice
EXTD=
EXTT0=
EXTT1=
EXTT2=By santana arr. nublues
EXTT3=by romanthony
EXTT4=
EXTT5=
EXTT6=
EXTT7=
PLAYORDER=
